<?xml version="1.0" standalone="no"?>
<!DOCTYPE svg PUBLIC "-//W3C//DTD SVG 20010904//EN"
 "http://www.w3.org/TR/2001/REC-SVG-20010904/DTD/svg10.dtd">
<svg version="1.0" xmlns="http://www.w3.org/2000/svg"
 width="200.000000pt" height="200.000000pt" viewBox="0 0 200.000000 200.000000"
 preserveAspectRatio="xMidYMid meet">
<metadata>
Created by potrace 1.16, written by Peter Selinger 2001-2019
</metadata>
<g transform="translate(0.000000,200.000000) scale(0.100000,-0.100000)"
fill="#000000" stroke="none">
<path d="M1060 1581 c0 -5 -27 -56 -60 -113 l-59 -103 113 -3 c112 -3 114 -3
109 -25 -4 -20 -3 -21 10 -5 13 17 15 17 33 -4 10 -12 13 -18 7 -14 -10 6 -13
-15 -13 -88 0 -79 -3 -96 -15 -96 -12 0 -15 -17 -16 -92 0 -76 -2 -90 -12 -75
-7 10 -22 32 -34 49 l-21 30 -4 -71 -3 -71 183 0 c180 0 183 0 193 23 9 20 34
65 88 161 13 23 19 45 15 55 -4 9 -8 18 -9 21 -7 24 -41 80 -47 80 -5 0 -6 5
-3 10 3 6 -1 13 -9 16 -9 3 -13 10 -10 15 3 5 0 9 -5 9 -6 0 -10 3 -9 8 3 13
-20 58 -36 71 -9 7 -16 19 -16 27 0 7 -6 19 -12 26 -7 7 -20 27 -28 43 -8 17
-21 38 -29 48 -8 9 -11 17 -7 17 4 0 0 7 -8 16 -9 8 -16 22 -16 30 0 11 -25
14 -135 14 -74 0 -135 -4 -135 -9z"/>
<path d="M460 1469 l-64 -112 28 -51 c16 -28 46 -81 68 -118 l39 -68 128 0
128 0 66 113 65 112 -127 5 -126 5 -65 113 c-35 61 -67 112 -71 112 -3 0 -34
-50 -69 -111z"/>
</g>
</svg>
